<svg xmlns="http://www.w3.org/2000/svg" viewBox="0 0 121.99 16.51"><defs><style>.cls-1{fill:#1d1d1b;}</style></defs><title>Element 1</title><g id="Ebene_2" data-name="Ebene 2"><g id="Ebene_1-2" data-name="Ebene 1"><path class="cls-1" d="M0,16.1v-.23l.46-.16a.93.93,0,0,0,.61-.42,1.5,1.5,0,0,0,.15-.73v-12a1.45,1.45,0,0,0-.16-.74,1.17,1.17,0,0,0-.62-.44L0,1.15V.92H5.59c2.28,0,3.94.42,5,1.25a4.07,4.07,0,0,1,1.53,3.3,4.75,4.75,0,0,1-.64,2.41A4.23,4.23,0,0,1,9.36,9.61a9.75,9.75,0,0,1-3.91.65H4.67v4.23a1.13,1.13,0,0,0,.9,1.17l.69.21v.23ZM4.67,9.8h.87a3.94,3.94,0,0,0,1.84-.37A2.21,2.21,0,0,0,8.44,8.14a7.46,7.46,0,0,0,.35-2.55A7.06,7.06,0,0,0,8.41,3,2.33,2.33,0,0,0,7.29,1.74a4.16,4.16,0,0,0-1.84-.36H4.67Z"/><path class="cls-1" d="M13,16.1v-.23l.33-.09a1.07,1.07,0,0,0,.63-.42,1.38,1.38,0,0,0,.17-.73V7.43A1.33,1.33,0,0,0,14,6.7a1,1,0,0,0-.63-.33L13,6.3V6.07L17.2,4.72l.23.23-.07,3.26v6.44a1.35,1.35,0,0,0,.18.74,1.05,1.05,0,0,0,.61.41l.23.07v.23ZM15.71,3.5A1.89,1.89,0,0,1,14.39,3a1.63,1.63,0,0,1-.54-1.25A1.64,1.64,0,0,1,14.39.48,1.92,1.92,0,0,1,15.71,0,1.87,1.87,0,0,1,17,.48a1.67,1.67,0,0,1,.53,1.27A1.65,1.65,0,0,1,17,3,1.84,1.84,0,0,1,15.71,3.5Z"/><path class="cls-1" d="M19.39,16.1v-.23l.32-.09a1.05,1.05,0,0,0,.81-1.13V7.45a1.39,1.39,0,0,0-.17-.75.9.9,0,0,0-.62-.33l-.34-.09V6.05l3.93-1.33.23.23.19,1.38a7.15,7.15,0,0,1,1.81-1.18,4.93,4.93,0,0,1,2-.46,3.15,3.15,0,0,1,2.34.83,3.5,3.5,0,0,1,.81,2.53v6.62a1.07,1.07,0,0,0,.88,1.13l.21.07v.23H26.36v-.23l.3-.09a1.08,1.08,0,0,0,.8-1.13V7.31A1.3,1.3,0,0,0,26,5.84a3.58,3.58,0,0,0-2.21,1v7.82a1.05,1.05,0,0,0,.81,1.13l.2.07v.23Z"/><path class="cls-1" d="M36.94,16.45a3.3,3.3,0,0,1-2.29-.74,3,3,0,0,1-.82-2.35V5.5H32.25V5.27l.55-.09A4.93,4.93,0,0,0,34,4.72a5.17,5.17,0,0,0,1-.81l1.89-2.09h.23L37.1,5h2.57V5.5H37.08v8.28A1.83,1.83,0,0,0,37.43,15a1.16,1.16,0,0,0,.91.41,1.51,1.51,0,0,0,.85-.24,3.66,3.66,0,0,0,.74-.66l.23.23A3.36,3.36,0,0,1,38.89,16,3.83,3.83,0,0,1,36.94,16.45Z"/><path class="cls-1" d="M46.57,4.69a5.13,5.13,0,0,1,2.56.61A4.24,4.24,0,0,1,50.75,7a4.89,4.89,0,0,1,.56,2.38c0,.17,0,.34,0,.52a3,3,0,0,1-.09.47H44.34a5.88,5.88,0,0,0,.89,3.57A3.06,3.06,0,0,0,47.79,15a4.17,4.17,0,0,0,1.87-.37A4.72,4.72,0,0,0,51,13.55l.23.2a5.17,5.17,0,0,1-1.9,2,5.35,5.35,0,0,1-2.84.72,5.88,5.88,0,0,1-2.9-.71,4.89,4.89,0,0,1-2-2,6.41,6.41,0,0,1-.72-3.13,6,6,0,0,1,.83-3.21,5.54,5.54,0,0,1,2.13-2A5.72,5.72,0,0,1,46.57,4.69Zm-.06.46a1.72,1.72,0,0,0-1.14.4A2.77,2.77,0,0,0,44.63,7a13.48,13.48,0,0,0-.29,2.89h3.94a8.87,8.87,0,0,0-.19-3.61A1.55,1.55,0,0,0,46.51,5.15Z"/><path class="cls-1" d="M52.46,16.1v-.23l.35-.09a1.07,1.07,0,0,0,.63-.42,1.27,1.27,0,0,0,.17-.71V7.45a1.3,1.3,0,0,0-.17-.75,1,1,0,0,0-.63-.33l-.35-.09V6.05l4-1.33.23.23.21,2v.19a4.72,4.72,0,0,1,2-2.07,2.64,2.64,0,0,1,1.26-.35,1.71,1.71,0,0,1,1.33.49,1.66,1.66,0,0,1,.46,1.21,1.57,1.57,0,0,1-.45,1.21A1.46,1.46,0,0,1,60.37,8a2.11,2.11,0,0,1-1.7-1l0,0a.76.76,0,0,0-.53-.36.6.6,0,0,0-.55.29,1.54,1.54,0,0,0-.38.49,5.2,5.2,0,0,0-.29.66v6.41a1.06,1.06,0,0,0,.8,1.15l.74.21v.23Z"/><path class="cls-1" d="M62.51,10.58V10h5.8v.62Z"/><path class="cls-1" d="M69.74,16.1v-.23l.48-.16a1.06,1.06,0,0,0,.6-.43,1.64,1.64,0,0,0,.13-.74v-12a1.82,1.82,0,0,0-.12-.73.94.94,0,0,0-.57-.42l-.52-.21V.92h6.57a7.21,7.21,0,0,1,4.17,1,3.31,3.31,0,0,1,1.45,2.84,3.42,3.42,0,0,1-.76,2,4.89,4.89,0,0,1-2.4,1.56L82,14.72a2.13,2.13,0,0,0,1.17,1.06l.3.11v.21H79.33L75.92,8.85H74.36v5.69a1.5,1.5,0,0,0,.14.71.89.89,0,0,0,.57.41l.55.21v.23Zm4.62-7.7h1.1a2.93,2.93,0,0,0,2.39-.89,4,4,0,0,0,.74-2.63,4.21,4.21,0,0,0-.69-2.64,2.82,2.82,0,0,0-2.32-.86H74.36Z"/><path class="cls-1" d="M84.18,16.1v-.23l.53-.21a1,1,0,0,0,.54-.42,1.5,1.5,0,0,0,.15-.73v-12a1.65,1.65,0,0,0-.13-.73.92.92,0,0,0-.56-.42l-.53-.21V.92h11l.13,3.54H95.1l-1-2.16a3.11,3.11,0,0,0-.44-.67A.9.9,0,0,0,93,1.38H88.85V8h2.46a.94.94,0,0,0,.7-.24,2.43,2.43,0,0,0,.43-.66l.46-.92h.23v4.14H92.9l-.46-1A2.93,2.93,0,0,0,92,8.73a.9.9,0,0,0-.69-.24H88.85v7.15h4.64a1,1,0,0,0,.72-.24,1.79,1.79,0,0,0,.41-.68l.94-2.16h.23l-.13,3.54Z"/><path class="cls-1" d="M101.89,16.51a11.08,11.08,0,0,1-2.58-.31,8.09,8.09,0,0,1-2.18-.81l.11-3.13h.23l.72,1.49a6.89,6.89,0,0,0,.69,1.14,2.33,2.33,0,0,0,1,.77,3,3,0,0,0,.88.31,4.78,4.78,0,0,0,1,.08,3.13,3.13,0,0,0,2.22-.76,2.54,2.54,0,0,0,.81-1.95,2.58,2.58,0,0,0-.55-1.76,5.75,5.75,0,0,0-1.77-1.23l-.94-.41a10.09,10.09,0,0,1-3.1-2,4.13,4.13,0,0,1-1.11-3A3.93,3.93,0,0,1,98,2.55,4.41,4.41,0,0,1,100,1a7.34,7.34,0,0,1,2.93-.53,8,8,0,0,1,2.31.32,6.51,6.51,0,0,1,1.9.87L107,4.46h-.23l-.94-1.72A3.48,3.48,0,0,0,105,1.6a2.31,2.31,0,0,0-.89-.47,3.42,3.42,0,0,0-.56-.13,5.48,5.48,0,0,0-.64,0,3,3,0,0,0-2,.67,2.31,2.31,0,0,0-.8,1.83,2.77,2.77,0,0,0,.62,1.88,5.37,5.37,0,0,0,1.82,1.25l1,.46a9.18,9.18,0,0,1,3.18,2.06,4.12,4.12,0,0,1,1,2.82,4.1,4.1,0,0,1-1.53,3.3A6.58,6.58,0,0,1,101.89,16.51Z"/><path class="cls-1" d="M111.64,16.1v-.23l.94-.23a1.08,1.08,0,0,0,1-1.15V1.38h-2a1.49,1.49,0,0,0-1.22.45,8.33,8.33,0,0,0-.78,1.23l-.83,1.61h-.23l.12-3.75H121.9L122,4.67h-.23l-.83-1.61a6.46,6.46,0,0,0-.76-1.23A1.47,1.47,0,0,0,119,1.38h-2V14.49a1.07,1.07,0,0,0,.94,1.15l1,.23v.23Z"/></g></g></svg>